<svg width="614" height="701" viewBox="0 0 614 701" fill="none" xmlns="http://www.w3.org/2000/svg">
<g id="hello" clip-path="url(#clip0_1_133)">
<path id="Vector" d="M294.343 657.212L293.562 639.636C293.48 639.593 293.399 639.55 293.318 639.507C284.942 635.112 275.342 643.068 278.017 652.141C280.535 660.678 282.226 669.881 286.833 677.353C289.556 681.693 293.22 685.364 297.554 688.096C301.889 690.827 306.782 692.548 311.872 693.131L322.514 699.647C323.974 691.506 323.652 683.146 321.57 675.142C319.488 667.138 315.696 659.68 310.454 653.283C307.478 649.723 304.065 646.553 300.297 643.846C297.748 650.566 294.343 657.212 294.343 657.212Z" fill="#F2F2F2"/>
<path id="Vector_2" d="M199.067 478.844C178.579 457.715 148.89 445.597 117.611 445.597L116.404 445.601C95.8015 445.608 75.5665 440.144 57.7687 429.766L55.9166 428.687L57.4083 427.15C65.4839 418.795 72.227 409.248 77.4015 398.843C73.7265 402.27 69.3433 404.846 64.5622 406.391C59.7811 407.935 54.7189 408.41 49.7339 407.781C44.4711 407.154 39.4186 405.343 34.9555 402.484C30.4924 399.626 26.7345 395.793 23.9638 391.275C13.0315 373.537 0 348.369 0 329.195C0.0170178 312.988 3.41039 296.963 9.96384 282.14C16.5173 267.318 26.087 254.023 38.0631 243.104C45.645 236.267 51.701 227.91 55.8362 218.576C59.9715 209.242 62.0931 199.141 62.0629 188.932L62.0568 187.48C62.0548 174.039 63.6973 160.649 66.9476 147.607L67.2777 146.29L68.6327 146.337C77.3705 146.635 86.113 145.902 94.6795 144.155C86.6441 143.17 78.7833 141.079 71.3199 137.942L69.8623 137.352L70.357 135.859C104.458 114.745 181.434 125.679 226.114 23.4552C262.342 -59.434 390.17 97.0361 390.17 187.48C390.17 196.708 381.037 208.904 387.874 215.004C461.784 280.942 410.787 323.283 394.708 365.889C390.894 375.998 399.165 387.095 399.165 398.031C399.165 399.887 399.118 401.803 399.024 403.725L398.882 406.68L396.418 405.04C391.543 401.846 387.024 398.14 382.938 393.983C387.177 403.737 389.174 414.318 388.784 424.945C388.393 435.573 385.625 445.978 380.682 455.395C372.936 470.014 365.443 480.48 358.41 486.5C335.881 505.78 306.837 515.725 277.219 514.302C247.601 512.879 219.645 500.195 199.067 478.844V478.844Z" fill="#E6E6E6"/>
<path id="Vector_3" d="M322.808 698.78C323.312 698.779 323.798 698.597 324.178 698.267C324.559 697.936 324.807 697.48 324.878 696.981C324.967 696.356 333.678 633.527 325.854 550.025C318.629 472.909 295.425 361.834 225.915 270.61C225.749 270.391 225.541 270.207 225.303 270.069C225.065 269.93 224.803 269.84 224.53 269.803C224.257 269.766 223.98 269.783 223.714 269.853C223.448 269.923 223.198 270.045 222.979 270.212C222.761 270.379 222.577 270.587 222.438 270.825C222.3 271.063 222.21 271.326 222.173 271.598C222.137 271.871 222.154 272.148 222.225 272.414C222.295 272.68 222.418 272.93 222.585 273.148C291.494 363.584 314.511 473.844 321.686 550.416C329.464 633.432 320.821 695.771 320.733 696.391C320.691 696.688 320.713 696.991 320.798 697.278C320.883 697.566 321.029 697.832 321.226 698.059C321.422 698.285 321.666 698.467 321.938 698.591C322.211 698.715 322.508 698.78 322.808 698.78V698.78Z" fill="#3F3D56"/>
<path id="Vector_4" d="M266.084 399.286C266.526 399.286 266.957 399.146 267.315 398.887C267.673 398.627 267.939 398.261 268.076 397.84C268.213 397.42 268.213 396.967 268.077 396.546C267.94 396.125 267.674 395.759 267.316 395.499C267.064 395.316 241.635 376.993 203.62 363.074C168.477 350.208 115.038 338.544 60.0226 356.054C59.7602 356.137 59.5168 356.271 59.3063 356.448C59.0958 356.625 58.9222 356.842 58.7956 357.086C58.669 357.33 58.5918 357.597 58.5685 357.872C58.5451 358.146 58.576 358.422 58.6595 358.684C58.7429 358.946 58.8772 359.189 59.0548 359.4C59.2323 359.61 59.4495 359.783 59.6941 359.909C59.9386 360.035 60.2056 360.112 60.4798 360.135C60.754 360.158 61.0301 360.127 61.2921 360.043C115.18 342.893 167.651 354.364 202.18 367.006C239.653 380.726 264.607 398.706 264.855 398.886C265.212 399.146 265.642 399.286 266.084 399.286Z" fill="#3F3D56"/>
<path id="Vector_5" d="M361.896 160.653C361.928 160.212 361.82 159.772 361.587 159.397C361.353 159.021 361.007 158.729 360.598 158.562C360.188 158.395 359.736 158.363 359.307 158.468C358.878 158.574 358.493 158.813 358.208 159.151C358.007 159.39 337.901 183.433 321.28 220.348C305.916 254.472 290.435 306.933 303.937 363.066C304.066 363.606 304.405 364.072 304.879 364.362C305.352 364.652 305.921 364.742 306.461 364.612C307.001 364.482 307.467 364.143 307.757 363.67C308.047 363.196 308.137 362.627 308.007 362.087C294.783 307.104 310.002 255.596 325.098 222.067C341.481 185.679 361.211 162.085 361.408 161.85C361.694 161.513 361.864 161.094 361.896 160.653V160.653Z" fill="#3F3D56"/>
<path id="Vector_6" d="M359.063 268.597C360.829 282.848 370.703 294.597 385.063 294.597C391.958 294.597 398.572 291.858 403.448 286.982C408.324 282.106 411.063 275.493 411.063 268.597C411.063 254.238 399.361 243.925 385.063 242.597C369.892 241.189 356.795 250.302 359.063 268.597Z" fill="#2F2E41"/>
<path id="Vector_7" d="M397.105 687.328L407.006 687.327L411.716 649.137L397.103 649.138L397.105 687.328Z" fill="#FFB6B6"/>
<path id="Vector_8" d="M396.757 697.656L427.204 697.655V697.27C427.204 694.127 425.955 691.113 423.733 688.891C421.51 686.668 418.496 685.42 415.353 685.42H415.352L409.791 681.2L399.414 685.42L396.757 685.42L396.757 697.656Z" fill="#2F2E41"/>
<path id="Vector_9" d="M358.105 687.328L368.006 687.327L372.716 649.137L358.103 649.138L358.105 687.328Z" fill="#FFB6B6"/>
<path id="Vector_10" d="M357.757 697.656L388.204 697.655V697.27C388.204 694.127 386.955 691.113 384.733 688.891C382.51 686.668 379.496 685.42 376.353 685.42H376.352L370.791 681.2L360.414 685.42L357.757 685.42L357.757 697.656Z" fill="#2F2E41"/>
<path id="Vector_11" d="M431.177 448.137L438.177 472.137L429.931 573.782C429.931 573.782 434.177 580.137 431.177 580.137C428.177 580.137 424.33 581.546 426.754 585.341C429.177 589.137 420.894 602.762 420.894 602.762L409.177 675.137L394.248 674.916C394.248 674.916 386.658 670.688 390.917 666.412C395.177 662.137 398.177 662.137 394.177 658.137C390.177 654.137 390.177 655.341 390.177 652.239C390.177 649.137 386.169 611.223 395.673 596.68L392.81 537.385L386.065 595.546L372.177 673.137L357.795 673.018C357.795 673.018 351.153 666.616 351.165 661.876C351.177 657.137 355.269 656.743 352.223 653.94C349.177 651.137 349.177 608.074 358.177 584.137C358.177 584.137 363.268 570.763 358.166 566.18C353.063 561.597 358.159 556.354 358.159 556.354C358.159 556.354 366.241 553.432 358.152 545.015C350.063 536.597 358.108 477.066 358.108 477.066C358.108 477.066 349.266 453.035 358.221 443.586C367.177 434.137 431.177 448.137 431.177 448.137Z" fill="#2F2E41"/>
<path id="Vector_12" d="M306.503 489.486L318.992 459.304L328.832 464.771L322.889 495.474C323.484 497.419 323.525 499.492 323.007 501.459C322.489 503.426 321.432 505.209 319.956 506.609C318.48 508.008 316.642 508.968 314.65 509.38C312.659 509.793 310.591 509.642 308.68 508.944C306.77 508.245 305.092 507.028 303.835 505.429C302.578 503.829 301.793 501.911 301.566 499.889C301.34 497.868 301.682 495.823 302.554 493.985C303.426 492.148 304.794 490.59 306.503 489.486V489.486Z" fill="#FFB6B6"/>
<path id="Vector_13" d="M497.349 254.226L478.345 280.794L470 273.24L482.745 244.682C482.606 242.652 483.036 240.624 483.986 238.826C484.936 237.027 486.37 235.53 488.125 234.501C489.88 233.472 491.887 232.954 493.92 233.003C495.954 233.053 497.933 233.669 499.636 234.782C501.339 235.894 502.697 237.46 503.559 239.303C504.421 241.145 504.751 243.192 504.514 245.212C504.276 247.232 503.479 249.146 502.214 250.739C500.948 252.331 499.263 253.539 497.349 254.226V254.226Z" fill="#FFB6B6"/>
<g id="Vector_14">
<path id="Vector_15" d="M430.911 441.404C443.237 460.522 381.28 484.784 357.507 475.044C353.344 473.338 339.025 467.705 348.812 459.894C358.6 452.084 347.677 450.985 347.419 445.9C347.247 442.501 349.878 435.045 347.133 435.364C344.387 435.684 341.173 430.983 347.153 428.96C353.133 426.937 347.217 425.093 347.27 423.172C347.461 416.157 349.39 407.755 351.872 399.681L334.948 442.942C334.948 442.942 335.162 455.755 331.468 451.839C327.773 447.924 328.042 460.596 328.042 460.596C328.042 460.596 322.549 464.43 325.708 466.564C328.867 468.697 322.307 475.257 322.307 475.257L307 474.164C307 474.164 307.24 462.793 309.853 460.279C312.467 457.764 311.183 453.807 311.183 453.807C311.183 453.807 317.987 447.784 313.426 442.893C307.558 436.603 328.95 330.363 336.332 331.415C337.376 326.336 339.804 321.644 343.347 317.858C346.891 314.072 351.413 311.34 356.412 309.964L372.944 305.412L375.88 293.764H399.159L403.213 301.417L420.911 309.404L430.547 339.684C438.539 348.858 430.911 441.404 430.911 441.404Z" fill="#A96562"/>
<path id="Vector_16" d="M427.475 305.76C413.825 307.367 411.334 312.323 408 317.027L417.635 347.307C438.144 337.515 455.451 322.641 470.116 303.573C470.116 303.573 474.831 283.789 481.049 281.707C487.267 279.624 488.316 272.712 488.316 272.712C488.316 272.712 488.702 266.4 490.755 268.575C492.809 270.75 491.235 264.792 491.235 264.792L493.816 260.417L481.049 250C481.049 250 471.209 251.093 473.477 252.758C475.746 254.422 470.936 255.686 470.936 255.686C470.936 255.686 465.742 257.653 468.49 258.504C471.238 259.355 466.368 260.949 466.368 260.949C466.368 260.949 460.666 267.067 462.462 269.68C464.258 272.293 427.475 305.76 427.475 305.76Z" fill="#A96562"/>
</g>
<path id="Vector_17" d="M387.937 296.141C400.67 296.141 410.993 285.819 410.993 273.086C410.993 260.352 400.67 250.03 387.937 250.03C375.204 250.03 364.881 260.352 364.881 273.086C364.881 285.819 375.204 296.141 387.937 296.141Z" fill="#FFB6B6"/>
<path id="Vector_18" d="M364.063 275.597C364.793 280.607 369.063 287.597 368.063 287.597C367.063 287.597 359.953 266.944 367.063 265.597C372.22 264.621 373.373 265.477 378.193 263.387L377.513 264.027C380.703 266.347 385.143 264.917 388.783 263.407C392.433 261.907 396.863 260.477 400.063 262.787C402.073 264.237 402.923 266.757 404.173 268.897C405.423 271.047 407.733 273.077 410.113 272.417C412.023 271.887 413.123 269.747 413.113 267.767C413.103 265.787 410.525 263.904 411.393 262.127C413.966 256.863 411.652 253.275 406.043 250.797C404.003 250.487 401.963 250.171 399.923 249.847C400.992 248.367 402.288 247.064 403.763 245.987C403.14 244.39 402.062 243.009 400.663 242.017C399.033 241.047 397.013 241.117 395.123 241.217C390.903 241.437 386.686 241.657 382.473 241.877C379.353 242.037 376.123 242.227 373.333 243.657C369.853 245.447 367.573 248.937 365.913 252.487C362.193 260.467 362.783 266.887 364.063 275.597Z" fill="#2F2E41"/>
<path id="Vector_19" d="M268.152 700.254L494.902 700.561C495.218 700.561 495.521 700.436 495.744 700.213C495.968 699.989 496.093 699.686 496.093 699.371C496.093 699.055 495.968 698.752 495.744 698.529C495.521 698.305 495.218 698.18 494.902 698.18L268.152 697.873C267.837 697.873 267.534 697.998 267.31 698.221C267.087 698.445 266.962 698.747 266.962 699.063C266.962 699.379 267.087 699.682 267.31 699.905C267.534 700.128 267.837 700.254 268.152 700.254V700.254Z" fill="#CACACA"/>
</g>
<defs>
<clipPath id="clip0_1_133">
<rect width="613.353" height="700.561" fill="white"/>
</clipPath>
</defs>
</svg>
